<svg xmlns="http://www.w3.org/2000/svg" viewBox="0 0 100 120" fill="none">
  <path d="M50 5L5 25V60C5 87 50 115 50 115C50 115 95 87 95 60V25L50 5Z" fill="#3B82F6" stroke="#60A5FA" stroke-width="2"/>
  <path d="M50 15L15 30V58C15 78 50 102 50 102C50 102 85 78 85 58V30L50 15Z" fill="#1E3A8A" stroke="#3B82F6" stroke-width="1.5"/>
  <circle cx="50" cy="50" r="12" fill="#3B82F6"/>
  <circle cx="50" cy="50" r="6" fill="#60A5FA"/>
  <line x1="50" y1="38" x2="50" y2="25" stroke="#60A5FA" stroke-width="2"/>
  <line x1="50" y1="62" x2="50" y2="75" stroke="#60A5FA" stroke-width="2"/>
  <line x1="38" y1="50" x2="25" y2="50" stroke="#60A5FA" stroke-width="2"/>
  <line x1="62" y1="50" x2="75" y2="50" stroke="#60A5FA" stroke-width="2"/>
  <line x1="41.5" y1="41.5" x2="32" y2="32" stroke="#60A5FA" stroke-width="1.5"/>
  <line x1="58.5" y1="41.5" x2="68" y2="32" stroke="#60A5FA" stroke-width="1.5"/>
  <line x1="41.5" y1="58.5" x2="32" y2="68" stroke="#60A5FA" stroke-width="1.5"/>
  <line x1="58.5" y1="58.5" x2="68" y2="68" stroke="#60A5FA" stroke-width="1.5"/>
  <circle cx="50" cy="25" r="3" fill="#93C5FD"/>
  <circle cx="50" cy="75" r="3" fill="#93C5FD"/>
  <circle cx="25" cy="50" r="3" fill="#93C5FD"/>
  <circle cx="75" cy="50" r="3" fill="#93C5FD"/>
  <circle cx="32" cy="32" r="2.5" fill="#93C5FD"/>
  <circle cx="68" cy="32" r="2.5" fill="#93C5FD"/>
  <circle cx="32" cy="68" r="2.5" fill="#93C5FD"/>
  <circle cx="68" cy="68" r="2.5" fill="#93C5FD"/>
</svg>
